# xmcd CD database file
#
# Track frame offsets:
#	150
#	17684
#	35859
#	50748
#	69347
#	86463
#	101116
#	116443
#	134842
#	150640
#	168035
#	188025
#	207623
#	226310
#	247035
#	262034
#	280409
#	300993
#
# Disc length: 4253 seconds
#
# Revision: 0
# Processed by: cddbd v1.5.1PL2 Copyright (c) Steve Scherf et al.
# Submitted via: CDex 1.50
#
DISCID=03109b12
DTITLE=Nikos Garavelas - Timeless
DYEAR=2005
DGENRE=Country
TTITLE0=Reba McEntire - Forever Love
TTITLE1=Mark Wills - Wish you where here
TTITLE2=Kelly Willis - World without you
TTITLE3=Mark Chesnutt - I dont want to miss a thing
TTITLE4=Trish Yearwood - Trying to love you
TTITLE5=Billy Currington - I got a feelin'
TTITLE6=Joe Nichols - She only smoke when she drinks
TTITLE7=Lee Ann Womack - Dont tell me
TTITLE8=Vince Gill - There's not much love here anymore
TTITLE9=Jimmy Wayne - Are you ever gonna lova me?
TTITLE10=Terri Clark - The first to fall
TTITLE11=Garry Allan - The one
TTITLE12=Hanna McEuen - Ocean
TTITLE13=George Canyon - Letting go
TTITLE14=Katrina Elam - The breakup song
TTITLE15=Darryl Worley - I miss my friend
TTITLE16=Cross Canadian Ragweed with Lee Ann Womack - Sick and tired
TTITLE17=Steve Wariner - Some fools never learn
EXTD=YEAR: 2005
EXTT0=
EXTT1=
EXTT2=
EXTT3=
EXTT4=
EXTT5=
EXTT6=
EXTT7=
EXTT8=
EXTT9=
EXTT10=
EXTT11=
EXTT12=
EXTT13=
EXTT14=
EXTT15=
EXTT16=
EXTT17=
PLAYORDER=
